<svg xmlns="http://www.w3.org/2000/svg" width="18.393" height="18.393" viewBox="0 0 18.393 18.393">
  <path id="Icon_awesome-coins" data-name="Icon awesome-coins" d="M0,14.56v1.534c0,1.268,3.089,2.3,6.9,2.3s6.9-1.031,6.9-2.3V14.56c-1.484,1.045-4.2,1.534-6.9,1.534S1.484,15.605,0,14.56ZM11.5,4.6c3.808,0,6.9-1.031,6.9-2.3S15.3,0,11.5,0,4.6,1.031,4.6,2.3,7.688,4.6,11.5,4.6ZM0,10.792v1.854c0,1.268,3.089,2.3,6.9,2.3s6.9-1.031,6.9-2.3V10.792c-1.484,1.221-4.2,1.854-6.9,1.854S1.484,12.013,0,10.792Zm14.944.4c2.058-.4,3.449-1.139,3.449-1.99V7.663A8.822,8.822,0,0,1,14.944,8.9ZM6.9,5.748C3.089,5.748,0,7.034,0,8.622S3.089,11.5,6.9,11.5s6.9-1.286,6.9-2.874S10.705,5.748,6.9,5.748ZM14.776,7.77c2.155-.388,3.618-1.15,3.618-2.023V4.214a11.7,11.7,0,0,1-5.773,1.5A4.023,4.023,0,0,1,14.776,7.77Z" fill="#e9b9c5"/>
</svg>
