<svg xmlns="http://www.w3.org/2000/svg" xmlns:xlink="http://www.w3.org/1999/xlink" width="26.786" height="29.256" viewBox="0 0 26.786 29.256">
  <defs>
    <clipPath id="clip-path">
      <rect id="Rectangle_7" data-name="Rectangle 7" width="26.786" height="29.256" fill="#fff"/>
    </clipPath>
  </defs>
  <g id="Group_6" data-name="Group 6" transform="translate(0 0)">
    <g id="Group_5" data-name="Group 5" transform="translate(0 0)" clip-path="url(#clip-path)">
      <path id="Path_14" data-name="Path 14" d="M5.677,8.883h8.505a.737.737,0,1,0,0-1.475H5.677a.737.737,0,1,0,0,1.475m0,5.213h8.505a.737.737,0,1,0,0-1.475H5.677a.737.737,0,1,0,0,1.475m0,5.419h8.505a.737.737,0,1,0,0-1.475H5.677a.737.737,0,1,0,0,1.475M23.374,0H4.1C4.058,0,0,.058,0,4.99,0,9.2.136,28.127.137,28.318a.737.737,0,0,0,1.126.621L5.74,26.165l4.685,2.976a.737.737,0,0,0,.8,0l4.55-2.969,4.335,2.639a.737.737,0,0,0,1.121-.624l.154-17.715h5.4V3.413A3.417,3.417,0,0,0,23.374,0M19.961,3.413v1.16l-.194,22.3-3.624-2.205a.737.737,0,0,0-.787.012l-4.541,2.964L6.14,24.672a.74.74,0,0,0-.784,0L1.6,26.994c-.031-4.388-.128-18.453-.128-22,0-3.375,2.36-3.511,2.624-3.515h16.47a3.391,3.391,0,0,0-.607,1.938m5.351,5.579H21.436V3.413a1.938,1.938,0,0,1,3.876,0Z" transform="translate(0 0)" fill="#fff"/>
    </g>
  </g>
</svg>
