<svg xmlns="http://www.w3.org/2000/svg" width="17.535" height="17.536" viewBox="0 0 17.535 17.536">
  <path id="Icon_ionic-ios-person" data-name="Icon ionic-ios-person" d="M22.027,21.593c-.329-1.452-2.206-2.16-2.854-2.388a21.28,21.28,0,0,0-2.379-.457,2.417,2.417,0,0,1-1.1-.507,9.619,9.619,0,0,1-.073-2.251A6.773,6.773,0,0,0,16.141,15a12.782,12.782,0,0,0,.384-1.731s.374,0,.507-.658a6.47,6.47,0,0,0,.338-1.53c-.027-.525-.315-.511-.315-.511a8.007,8.007,0,0,0,.311-2.343A3.763,3.763,0,0,0,13.273,4.5c-2.7,0-4.137,1.85-4.1,3.726a8.352,8.352,0,0,0,.306,2.343s-.288-.014-.315.511a6.47,6.47,0,0,0,.338,1.53c.128.658.507.658.507.658A12.782,12.782,0,0,0,10.4,15a6.774,6.774,0,0,0,.521.991,9.619,9.619,0,0,1-.073,2.251,2.417,2.417,0,0,1-1.1.507,21.28,21.28,0,0,0-2.379.457c-.648.228-2.525.936-2.854,2.388a.365.365,0,0,0,.361.443h16.8A.364.364,0,0,0,22.027,21.593Z" transform="translate(-4.501 -4.5)" fill="#e9b9c5"/>
</svg>
