<svg xmlns="http://www.w3.org/2000/svg" width="22.546" height="17.536" viewBox="0 0 22.546 17.536">
  <path id="Icon_awesome-address-card" data-name="Icon awesome-address-card" d="M20.667,2.25H1.879A1.879,1.879,0,0,0,0,4.129V17.907a1.879,1.879,0,0,0,1.879,1.879H20.667a1.879,1.879,0,0,0,1.879-1.879V4.129A1.879,1.879,0,0,0,20.667,2.25ZM6.889,6.008A2.505,2.505,0,1,1,4.384,8.513,2.507,2.507,0,0,1,6.889,6.008Zm4.384,9.269a.821.821,0,0,1-.877.752H3.382a.821.821,0,0,1-.877-.752v-.752a2.465,2.465,0,0,1,2.63-2.255h.2a4.032,4.032,0,0,0,3.116,0h.2a2.465,2.465,0,0,1,2.63,2.255Zm8.768-2.067a.314.314,0,0,1-.313.313H14.091a.314.314,0,0,1-.313-.313v-.626a.314.314,0,0,1,.313-.313h5.637a.314.314,0,0,1,.313.313Zm0-2.505a.314.314,0,0,1-.313.313H14.091a.314.314,0,0,1-.313-.313v-.626a.314.314,0,0,1,.313-.313h5.637a.314.314,0,0,1,.313.313Zm0-2.505a.314.314,0,0,1-.313.313H14.091a.314.314,0,0,1-.313-.313V7.573a.314.314,0,0,1,.313-.313h5.637a.314.314,0,0,1,.313.313Z" transform="translate(0 -2.25)" fill="#e9b9c5"/>
</svg>
