<svg id="Group_2" data-name="Group 2" xmlns="http://www.w3.org/2000/svg" xmlns:xlink="http://www.w3.org/1999/xlink" width="27.494" height="28.702" viewBox="0 0 27.494 28.702">
  <defs>
    <clipPath id="clip-path">
      <rect id="Rectangle_4" data-name="Rectangle 4" width="27.494" height="28.702" fill=""/>
    </clipPath>
  </defs>
  <g id="Group_1" data-name="Group 1" clip-path="url(#clip-path)">
    <path id="Path_6" data-name="Path 6" d="M27.007,25.55,22.934,21.06a1.868,1.868,0,0,0-.484-.381A12.678,12.678,0,1,0,19.817,23.1a1.866,1.866,0,0,0,.323.5l4.073,4.491a1.886,1.886,0,1,0,2.794-2.534M12.661,23.712A11.051,11.051,0,1,1,23.712,12.66,11.064,11.064,0,0,1,12.661,23.712M8.125,8.8a1.622,1.622,0,0,0-1.617,1.617V16.9a1.617,1.617,0,0,0,3.233,0V10.418A1.621,1.621,0,0,0,8.125,8.8M17.2,11.736a1.621,1.621,0,0,0-1.617,1.617V16.9a1.617,1.617,0,0,0,3.233,0V13.353A1.621,1.621,0,0,0,17.2,11.736M12.705,6.8a1.621,1.621,0,0,0-1.617,1.617V16.9a1.617,1.617,0,0,0,3.233,0V8.417A1.622,1.622,0,0,0,12.705,6.8" fill="#fff"/>
  </g>
</svg>
