<svg xmlns="http://www.w3.org/2000/svg" width="22.546" height="15.782" viewBox="0 0 22.546 15.782">
  <path id="Icon_awesome-money-bill-wave-alt" data-name="Icon awesome-money-bill-wave-alt" d="M21.882,3.041a10.432,10.432,0,0,0-4.1-.791c-4.339,0-8.678,2.2-13.017,2.2A10.688,10.688,0,0,1,1.5,3.963a1.2,1.2,0,0,0-.365-.057A1.121,1.121,0,0,0,0,5.026V16.2a1.12,1.12,0,0,0,.664,1.038,10.426,10.426,0,0,0,4.1.792c4.339,0,8.678-2.2,13.017-2.2a10.688,10.688,0,0,1,3.264.483,1.2,1.2,0,0,0,.365.057,1.121,1.121,0,0,0,1.136-1.121V4.079A1.122,1.122,0,0,0,21.882,3.041ZM11.273,13.523a3.139,3.139,0,0,1-2.818-3.382,3.139,3.139,0,0,1,2.818-3.382,3.139,3.139,0,0,1,2.818,3.382A3.139,3.139,0,0,1,11.273,13.523Z" transform="translate(0 -2.25)" fill="#e9b9c5"/>
</svg>
