<svg id="Group_134" data-name="Group 134" xmlns="http://www.w3.org/2000/svg" xmlns:xlink="http://www.w3.org/1999/xlink" width="814.257" height="286.186" viewBox="0 0 814.257 286.186">
  <defs>
    <clipPath id="clip-path">
      <rect id="Rectangle_88" data-name="Rectangle 88" width="814.257" height="286.186" fill="none"/>
    </clipPath>
    <clipPath id="clip-path-2">
      <rect id="Rectangle_87" data-name="Rectangle 87" width="814.257" height="286.188" fill="none"/>
    </clipPath>
    <clipPath id="clip-path-3">
      <rect id="Rectangle_81" data-name="Rectangle 81" width="813.67" height="270.338" fill="none"/>
    </clipPath>
    <clipPath id="clip-path-4">
      <rect id="Rectangle_82" data-name="Rectangle 82" width="814.257" height="257.571" fill="none"/>
    </clipPath>
    <clipPath id="clip-path-5">
      <rect id="Rectangle_83" data-name="Rectangle 83" width="814.257" height="282.478" fill="none"/>
    </clipPath>
    <clipPath id="clip-path-6">
      <rect id="Rectangle_84" data-name="Rectangle 84" width="814.257" height="149.23" fill="none"/>
    </clipPath>
    <clipPath id="clip-path-7">
      <rect id="Rectangle_85" data-name="Rectangle 85" width="813.67" height="151.389" fill="none"/>
    </clipPath>
    <clipPath id="clip-path-8">
      <rect id="Rectangle_86" data-name="Rectangle 86" width="813.177" height="147.854" fill="none"/>
    </clipPath>
  </defs>
  <g id="Group_133" data-name="Group 133" clip-path="url(#clip-path)">
    <g id="Group_132" data-name="Group 132" transform="translate(0 -0.001)">
      <g id="Group_131" data-name="Group 131" clip-path="url(#clip-path-2)">
        <g id="Group_115" data-name="Group 115" transform="translate(0 14.431)" opacity="0.13">
          <g id="Group_114" data-name="Group 114">
            <g id="Group_113" data-name="Group 113" clip-path="url(#clip-path-3)">
              <path id="Path_42" data-name="Path 42" d="M.493,4.965s313.593,24.871,460.655,99.483,308.19,101.02,352.52,61.866V275.3H0Z" transform="translate(-0.002 -4.965)" fill="#e9b9c5"/>
            </g>
          </g>
        </g>
        <g id="Group_118" data-name="Group 118" transform="translate(0 28.617)" opacity="0.16">
          <g id="Group_117" data-name="Group 117">
            <g id="Group_116" data-name="Group 116" clip-path="url(#clip-path-4)">
              <path id="Path_43" data-name="Path 43" d="M0,44.66s211.945-71.369,391.448-9.733S680.17,113.863,814.257,78.182V267.418H1.081Z" transform="translate(0 -9.845)" fill="#e9b9c5"/>
            </g>
          </g>
        </g>
        <g id="Group_121" data-name="Group 121" transform="translate(0 0.001)" opacity="0.33">
          <g id="Group_120" data-name="Group 120">
            <g id="Group_119" data-name="Group 119" clip-path="url(#clip-path-5)">
              <path id="Path_44" data-name="Path 44" d="M0,102.668S207.62,126.6,330.893,65.042s356.848-93.1,483.364-32.357V282.48H1.081Z" transform="translate(0 0)" fill="#fadae9"/>
            </g>
          </g>
        </g>
        <g id="Group_124" data-name="Group 124" transform="translate(0 134.459)" opacity="0.27">
          <g id="Group_123" data-name="Group 123">
            <g id="Group_122" data-name="Group 122" clip-path="url(#clip-path-6)">
              <path id="Path_45" data-name="Path 45" d="M0,46.27s162.2-1.311,244.386,49.088,222.758,70.942,295.208,55.8,237.9-55.132,274.662,4.874V195.5H0Z" transform="translate(0 -46.267)" fill="#fadae9"/>
            </g>
          </g>
        </g>
        <g id="Group_127" data-name="Group 127" transform="translate(0 133.379)" opacity="0.1">
          <g id="Group_126" data-name="Group 126">
            <g id="Group_125" data-name="Group 125" clip-path="url(#clip-path-7)">
              <path id="Path_46" data-name="Path 46" d="M0,197.285V174.576s121.11,3.243,220.6-20.546S528.781,62.114,646.648,65.36,813.67,45.895,813.67,45.895v151.39Z" transform="translate(0 -45.896)" fill="#e9b9c5"/>
            </g>
          </g>
        </g>
        <g id="Group_130" data-name="Group 130" transform="translate(0.493 138.334)" opacity="0.18">
          <g id="Group_129" data-name="Group 129">
            <g id="Group_128" data-name="Group 128" clip-path="url(#clip-path-8)">
              <path id="Path_47" data-name="Path 47" d="M.169,105.7s91.421-4.324,212.535,31.36,334.136,8.649,389.286-25.955S688.439,41.9,813.345,48.39V195.455H.169Z" transform="translate(-0.171 -47.6)" fill="#e9b9c5"/>
            </g>
          </g>
        </g>
      </g>
    </g>
  </g>
</svg>
