<svg id="Group_109" data-name="Group 109" xmlns="http://www.w3.org/2000/svg" xmlns:xlink="http://www.w3.org/1999/xlink" width="274.405" height="113.906" viewBox="0 0 274.405 113.906">
  <defs>
    <clipPath id="clip-path">
      <rect id="Rectangle_80" data-name="Rectangle 80" width="274.405" height="113.906" fill="none"/>
    </clipPath>
  </defs>
  <path id="Path_38" data-name="Path 38" d="M336.43,0V25.7h51.84V81.087h29.242V0Z" transform="translate(-143.981 0)" fill="#e9b9c5"/>
  <path id="Path_39" data-name="Path 39" d="M321.924,51.811V74.692h29.638v33.323H378.13V51.81H321.924" transform="translate(-137.773 -22.173)" fill="#fadae9" fill-rule="evenodd"/>
  <rect id="Rectangle_79" data-name="Rectangle 79" width="34.068" height="34.07" transform="translate(175.788 56.418)" fill="#f2e1e8"/>
  <g id="Group_108" data-name="Group 108">
    <g id="Group_107" data-name="Group 107" clip-path="url(#clip-path)">
      <path id="Path_40" data-name="Path 40" d="M.6,180.524v-7.241a22.865,22.865,0,0,0-.134-2.7A14.808,14.808,0,0,0,0,168.3H3.72a6.731,6.731,0,0,1,4.234,1.218,3.96,3.96,0,0,1,1.564,3.3,3.59,3.59,0,0,1-1.843,3.095,5.218,5.218,0,0,1-.793.436,5.94,5.94,0,0,1,1.5.771,4.212,4.212,0,0,1,1.921,3.631,3.986,3.986,0,0,1-1.877,3.531,9.7,9.7,0,0,1-5.329,1.229H.011a14.753,14.753,0,0,0,.458-2.246A22.976,22.976,0,0,0,.6,180.523Zm2.614-10.559v5.8h.1a3.675,3.675,0,0,0,2.514-.815,2.845,2.845,0,0,0,.927-2.234,2.439,2.439,0,0,0-.915-2,3.754,3.754,0,0,0-2.459-.749Zm0,7.039v6.837H3.24a5.069,5.069,0,0,0,3.14-.882,2.832,2.832,0,0,0,1.161-2.38,3.168,3.168,0,0,0-1.2-2.6A5.008,5.008,0,0,0,3.218,177Zm9.9,8.5a13.239,13.239,0,0,0,.458-2.235,23.344,23.344,0,0,0,.134-2.747v-7.241a22.865,22.865,0,0,0-.134-2.7,13.576,13.576,0,0,0-.469-2.279h9.5l-.659,1.408-.67,1.407a7.724,7.724,0,0,0-1.944-.737,10.9,10.9,0,0,0-2.3-.212h-.7V175.8H22l-.781,1.4-.794,1.4a6.094,6.094,0,0,0-1.742-.715,10.132,10.132,0,0,0-2.257-.212h-.1v5.955a25.522,25.522,0,0,0,3.832-.347,11.046,11.046,0,0,0,3.553-1.24l-.715,1.742-.726,1.732H13.117Zm13.636-4.982,5.888-12.57,5.9,12.57q1.015,2.156,1.665,3.262a8.551,8.551,0,0,0,1.274,1.721H37.221A3.7,3.7,0,0,0,37.1,183.9a15.323,15.323,0,0,0-.8-2.38l-.582-1.329H29.345l-.078.257a17.764,17.764,0,0,0-1.006,3.005,5.03,5.03,0,0,0-.2,2.056H23.747a9.4,9.4,0,0,0,1.363-1.8q.657-1.094,1.642-3.184Zm5.776-7.721L30.306,178h4.468l-2.246-5.2Zm13.835.481v4.424a7.78,7.78,0,0,0,1.027,4.491,3.617,3.617,0,0,0,3.174,1.475,3.584,3.584,0,0,0,2.927-1.173,5.436,5.436,0,0,0,.972-3.531v-5.686a22.868,22.868,0,0,0-.134-2.7,14.726,14.726,0,0,0-.469-2.279h3.81a14.192,14.192,0,0,0-.469,2.257,24.752,24.752,0,0,0-.123,2.726v7.24a24.88,24.88,0,0,0,.123,2.725,13.63,13.63,0,0,0,.481,2.257H54.732v-1.888l-.458.368a7.7,7.7,0,0,1-4.861,1.8,4.97,4.97,0,0,1-4.223-1.9,9.168,9.168,0,0,1-1.442-5.586v-5.016a22.88,22.88,0,0,0-.134-2.7,14.808,14.808,0,0,0-.469-2.279h3.81a14.182,14.182,0,0,0-.469,2.245,24.737,24.737,0,0,0-.123,2.738Zm19.1,7.24V170.156q-1.367.057-2.347.2a9.646,9.646,0,0,0-3.128.916l.5-1.486L61,168.3H73.381l-.4,1.419-.413,1.408a19.762,19.762,0,0,0-2.58-.8,10.791,10.791,0,0,0-1.911-.235v10.436a19.9,19.9,0,0,0,.145,2.591,15.7,15.7,0,0,0,.525,2.391H64.8a15.959,15.959,0,0,0,.514-2.358A20.93,20.93,0,0,0,65.46,180.524ZM79.6,177.585l-2.413-4.3q-1.353-2.368-2.078-3.464A7.4,7.4,0,0,0,73.9,168.3h4.178a2.322,2.322,0,0,0,.055.916,4.709,4.709,0,0,0,.38,1.073l2.48,4.849,2.626-4.849a4.569,4.569,0,0,0,.425-1.073,2.67,2.67,0,0,0,.1-.916h3.754a9.327,9.327,0,0,0-1.5,1.754,35.845,35.845,0,0,0-1.855,3.229l-2.324,4.38v2.86a24.878,24.878,0,0,0,.123,2.725,13.608,13.608,0,0,0,.481,2.257h-3.81a14.746,14.746,0,0,0,.458-2.235,23.469,23.469,0,0,0,.134-2.747Zm18.572,2.939,5.888-12.57,5.9,12.57q1.013,2.156,1.665,3.262a8.551,8.551,0,0,0,1.273,1.721h-4.256a3.7,3.7,0,0,0-.124-1.609,15.086,15.086,0,0,0-.8-2.38l-.581-1.329h-6.368l-.078.257a17.76,17.76,0,0,0-1.005,3.005,5.043,5.043,0,0,0-.2,2.056H95.17a9.351,9.351,0,0,0,1.364-1.8Q97.191,182.614,98.176,180.524Zm5.776-7.721-2.224,5.2H106.2Zm23.889,11.664a13.415,13.415,0,0,1-2.58,1.029,11.2,11.2,0,0,1-2.649.279,8.415,8.415,0,0,1-6.144-2.413,8.165,8.165,0,0,1-2.459-6.066,9.04,9.04,0,0,1,2.6-6.626,8.793,8.793,0,0,1,6.525-2.636,12.822,12.822,0,0,1,2.279.19,11.9,11.9,0,0,1,2.134.593v2.849a7.564,7.564,0,0,0-2.212-1.14,7.833,7.833,0,0,0-2.492-.4,5.475,5.475,0,0,0-4.279,1.933,7.036,7.036,0,0,0-1.709,4.837,7.337,7.337,0,0,0,1.609,4.86,5.017,5.017,0,0,0,4.021,1.933,8.188,8.188,0,0,0,2.883-.469,9.387,9.387,0,0,0,2.6-1.587Zm15.373,0a13.414,13.414,0,0,1-2.58,1.029,11.2,11.2,0,0,1-2.649.279,8.415,8.415,0,0,1-6.144-2.413,8.165,8.165,0,0,1-2.459-6.066,9.04,9.04,0,0,1,2.6-6.626,8.793,8.793,0,0,1,6.525-2.636,12.822,12.822,0,0,1,2.279.19,11.9,11.9,0,0,1,2.134.593v2.849a7.564,7.564,0,0,0-2.212-1.14,7.833,7.833,0,0,0-2.492-.4,5.475,5.475,0,0,0-4.279,1.933,7.036,7.036,0,0,0-1.709,4.837,7.337,7.337,0,0,0,1.609,4.86,5.017,5.017,0,0,0,4.021,1.933,8.188,8.188,0,0,0,2.883-.469,9.387,9.387,0,0,0,2.6-1.587Zm10.024,1.307a8,8,0,0,1-6.066-2.558,9.043,9.043,0,0,1-2.413-6.446,8.311,8.311,0,0,1,2.57-6.246,8.932,8.932,0,0,1,6.458-2.491,7.992,7.992,0,0,1,6.078,2.57,9.052,9.052,0,0,1,2.413,6.446,8.3,8.3,0,0,1-2.58,6.235,8.907,8.907,0,0,1-6.458,2.491m.548-2.089a5.227,5.227,0,0,0,4.044-1.776,6.358,6.358,0,0,0,1.609-4.436,7.881,7.881,0,0,0-1.765-5.262,5.576,5.576,0,0,0-4.436-2.09,5.2,5.2,0,0,0-4.022,1.777,6.352,6.352,0,0,0-1.609,4.446,7.874,7.874,0,0,0,1.766,5.251A5.538,5.538,0,0,0,153.787,183.685Zm14.25-10.4v4.424a7.78,7.78,0,0,0,1.027,4.491,4.191,4.191,0,0,0,6.1.3,5.436,5.436,0,0,0,.972-3.531v-5.686a22.865,22.865,0,0,0-.134-2.7,14.723,14.723,0,0,0-.469-2.279h3.81a14.2,14.2,0,0,0-.469,2.257,24.75,24.75,0,0,0-.123,2.726v7.24a24.878,24.878,0,0,0,.123,2.725,13.608,13.608,0,0,0,.481,2.257h-2.949v-1.888l-.458.368a7.7,7.7,0,0,1-4.861,1.8,4.97,4.97,0,0,1-4.223-1.9,9.168,9.168,0,0,1-1.442-5.586v-5.016a22.884,22.884,0,0,0-.134-2.7,14.808,14.808,0,0,0-.469-2.279h3.81a14.181,14.181,0,0,0-.469,2.245,24.736,24.736,0,0,0-.123,2.738m18.08,7.24a23.232,23.232,0,0,0,.134,2.725,14.4,14.4,0,0,0,.47,2.257h-3.5a14.753,14.753,0,0,0,.459-2.235,23.481,23.481,0,0,0,.134-2.747v-9.687q-.484-.646-1.006-1.263a7.811,7.811,0,0,0-1.2-1.273H185.7q.638,1.171,1.363,2.29.761,1.127,1.6,2.2l6.558,8.525v-8.034a22.884,22.884,0,0,0-.134-2.7,13.58,13.58,0,0,0-.469-2.279h3.508a14.054,14.054,0,0,0-.469,2.257,24.48,24.48,0,0,0-.123,2.726v8.089a18.888,18.888,0,0,0,.156,2.469,5.62,5.62,0,0,0,.414,1.665H194.6a4.682,4.682,0,0,0-.636-1.317,20.4,20.4,0,0,0-1.352-1.956l-6.491-8.479v6.771Zm19.289,0V170.156q-1.365.057-2.346.2a9.649,9.649,0,0,0-3.128.916l.5-1.486.514-1.486h12.379l-.4,1.419-.413,1.408a19.8,19.8,0,0,0-2.581-.8,10.845,10.845,0,0,0-1.911-.235v10.436a20,20,0,0,0,.145,2.591,15.7,15.7,0,0,0,.525,2.391h-3.944a15.874,15.874,0,0,0,.513-2.358A20.717,20.717,0,0,0,205.406,180.524Zm11.106,0,5.888-12.57,5.9,12.57q1.013,2.156,1.665,3.262a8.551,8.551,0,0,0,1.273,1.721h-4.256a3.7,3.7,0,0,0-.124-1.609,15.087,15.087,0,0,0-.8-2.38l-.581-1.329H219.1l-.078.257a17.758,17.758,0,0,0-1.005,3.005,5.043,5.043,0,0,0-.2,2.056h-4.312a9.419,9.419,0,0,0,1.363-1.8Q215.527,182.614,216.512,180.524Zm5.776-7.721-2.224,5.2h4.469Zm14.035,7.721a23.106,23.106,0,0,0,.134,2.725,14.47,14.47,0,0,0,.469,2.257h-3.5a14.747,14.747,0,0,0,.458-2.235,23.466,23.466,0,0,0,.134-2.747v-9.687q-.484-.646-1.005-1.263a7.864,7.864,0,0,0-1.2-1.273h4.089q.637,1.171,1.363,2.29.761,1.127,1.6,2.2l6.559,8.525v-8.034a22.877,22.877,0,0,0-.134-2.7,13.578,13.578,0,0,0-.47-2.279h3.508a14.119,14.119,0,0,0-.47,2.257,24.761,24.761,0,0,0-.123,2.726v8.089a18.886,18.886,0,0,0,.157,2.469,5.625,5.625,0,0,0,.413,1.665H244.8a4.7,4.7,0,0,0-.637-1.317,20.384,20.384,0,0,0-1.351-1.956l-6.491-8.479v6.771Zm19.289,0V170.156q-1.365.057-2.346.2a9.649,9.649,0,0,0-3.128.916l.5-1.486.514-1.486h12.379l-.4,1.419-.413,1.408a19.772,19.772,0,0,0-2.582-.8,10.839,10.839,0,0,0-1.91-.235v10.436a20,20,0,0,0,.145,2.591,15.635,15.635,0,0,0,.525,2.391h-3.944a15.957,15.957,0,0,0,.514-2.358A20.717,20.717,0,0,0,255.613,180.524Zm18.156-8.838a5.276,5.276,0,0,0-1.531-1.184,3.814,3.814,0,0,0-1.7-.38,2.535,2.535,0,0,0-1.787.66,2.113,2.113,0,0,0-.7,1.619,2.357,2.357,0,0,0,.547,1.52,8.406,8.406,0,0,0,1.944,1.564,11.059,11.059,0,0,1,3,2.547,4.578,4.578,0,0,1,.861,2.76,4.673,4.673,0,0,1-1.519,3.564,5.327,5.327,0,0,1-3.8,1.419,9.925,9.925,0,0,1-1.967-.167,10.87,10.87,0,0,1-1.888-.614v-3.218a5.563,5.563,0,0,0,1.631,1.452,3.823,3.823,0,0,0,1.854.458,3.1,3.1,0,0,0,2.112-.726,2.33,2.33,0,0,0,.849-1.832,2.7,2.7,0,0,0-.57-1.7,8.666,8.666,0,0,0-2.011-1.643,11.033,11.033,0,0,1-2.939-2.446,4.231,4.231,0,0,1-.838-2.592,4.274,4.274,0,0,1,1.543-3.364,5.659,5.659,0,0,1,3.865-1.352,7.465,7.465,0,0,1,1.665.168,5.664,5.664,0,0,1,1.375.514" transform="translate(0 -71.879)" fill="#fadae9"/>
      <path id="Path_41" data-name="Path 41" d="M1.919,92.553l1.843-4.28q.939-2.245,2.28-5.832l2.469-6.624,3.206-9.4L15.65,55.192l5.161-14.916,6.2-17.976a18.273,18.273,0,0,0,1.352-5.005,2.164,2.164,0,0,0-2.436-2.458q-4.6-.021-8.67,6.771t-4.089,12.4a11.223,11.223,0,0,0,.5,3.486q-6.133-.021-6.112-5.855Q7.582,25,14.811,18.479t13.273-6.491q4.7.013,4.682,4.915a15.454,15.454,0,0,1-.827,4.391l-8.7,27.785a21.724,21.724,0,0,1,1.8-1.988c.715-.715,1.346-1.31,1.9-1.788l2.558-1.933,2.57-2.034A176.612,176.612,0,0,0,47.7,27.193,91.815,91.815,0,0,0,60.094,12.11q.906,1.22.894,4.492-.033,11.153-37.35,36.053l4.871,8.3q1.328,2.258,4.581,7.027a78,78,0,0,0,5.843,7.7q2.59,2.917,6.77,7.128t9.274,8.412a5.723,5.723,0,0,1-5.43,3.352h-.1q-5.007-.024-13.91-13.194A171.977,171.977,0,0,1,21.068,55.817L11.024,87.882a7.014,7.014,0,0,1-1.5,2.7A4.672,4.672,0,0,1,7.07,92a19.327,19.327,0,0,1-2.447.458,26.775,26.775,0,0,1-2.7.09ZM66.663,21.121q.759-8.983,24.993-8.893a172.532,172.532,0,0,1,18.133,1.184q10.478,1.164,14.781,1.184-5.455,4.784-17.507,4.736c-.755,0-1.951-.016-3.587-.055s-2.857-.066-3.675-.066a463,463,0,0,0-16.234,48.7q-.54,1.924-1.095,3.844-.526,1.865-1.083,3.72l-.726,3.162q-.515,2.159-.838,3.173l-.514,2.659q-.414,1.743-.57,2.86-.172,1.242-.268,2.492-.109,1.3-.112,2.614a16.916,16.916,0,0,0,.089,2.245Q70.373,94.655,70.4,87.4q.02-3.976,3.843-14.915Q85.723,39.6,95.3,19.188q-18.3.235-28.635,1.933m41,55.377q.034-7.261,4.033-10.469a14.08,14.08,0,0,1,9.117-3.184,19.786,19.786,0,0,0-5.687,13.675,13.942,13.942,0,0,0,4,10.234q4.023,4.11,11.586,4.134a22.683,22.683,0,0,0,13.317-3.933A12.622,12.622,0,0,0,149.8,76.04a13.064,13.064,0,0,0-3.184-8.647,31.169,31.169,0,0,0-7.8-6.637L129.729,55.3a30.346,30.346,0,0,1-7.7-6.715,13.724,13.724,0,0,1-3.172-8.96,24.6,24.6,0,0,1,3.519-12.1,30.891,30.891,0,0,1,10.413-10.647A27.49,27.49,0,0,1,148.1,12.435q10.733.045,10.692,10.267a31.9,31.9,0,0,1-2.5,11.441,64.945,64.945,0,0,1-5.453,11.017q-3.377-.726-3.362-4.4.007-2.869,3.06-10.68t3.062-10.771q.009-4.4-5.709-4.424-9.009-.033-15.787,7.619t-6.8,14.8a10.625,10.625,0,0,0,3.15,7.53,30.855,30.855,0,0,0,7.642,5.787l8.871,5.251a24.982,24.982,0,0,1,7.641,7.139,17.069,17.069,0,0,1,3.14,10.19,18.576,18.576,0,0,1-8.245,15.809,30.77,30.77,0,0,1-18.524,5.866A24.168,24.168,0,0,1,113.8,90.061q-6.168-4.772-6.134-13.563" transform="translate(-0.821 -5.13)" fill="#f2e1e8"/>
    </g>
  </g>
</svg>
