<svg id="Group_10" data-name="Group 10" xmlns="http://www.w3.org/2000/svg" xmlns:xlink="http://www.w3.org/1999/xlink" width="269" height="273.443" viewBox="0 0 269 273.443">
  <defs>
    <clipPath id="clip-path">
      <path id="Path_15" data-name="Path 15" d="M137.6,0C88.343.034,40.3,27.694,15.667,75.525A140.027,140.027,0,0,0,0,139.6v.274C.047,188.813,26.033,235.5,71.559,258.947c65.63,33.8,147.013,6.469,181.775-61.036A140.033,140.033,0,0,0,269,133.837v-.271c-.047-48.94-26.033-95.634-71.559-119.077A130.064,130.064,0,0,0,137.8,0Z" transform="translate(0 0.003)" fill="none"/>
    </clipPath>
    <radialGradient id="radial-gradient" cx="0.522" cy="0.488" r="0.369" gradientUnits="objectBoundingBox">
      <stop offset="0" stop-color="#fff"/>
      <stop offset="0.485" stop-color="#fefdfd"/>
      <stop offset="0.66" stop-color="#fef6f7"/>
      <stop offset="0.785" stop-color="#feeaee"/>
      <stop offset="0.886" stop-color="#fed9e0"/>
      <stop offset="0.972" stop-color="#fec3ce"/>
      <stop offset="1" stop-color="#febbc7"/>
    </radialGradient>
  </defs>
  <g id="Group_10-2" data-name="Group 10" transform="translate(0 0)" clip-path="url(#clip-path)">
    <rect id="Rectangle_15" data-name="Rectangle 15" width="383.415" height="373.185" transform="matrix(0.458, -0.889, 0.889, 0.458, -119.161, 231.371)" fill="url(#radial-gradient)"/>
  </g>
</svg>
